<mxfile host="app.diagrams.net" modified="2023-10-27T17:35:47.614Z" agent="Mozilla/5.0 (Macintosh; Intel Mac OS X 10_15_7) AppleWebKit/605.1.15 (KHTML, like Gecko) Version/17.0 Safari/605.1.15" etag="8Ujjmgk9vbgVtY4QrmZT" version="22.0.8" type="device">
  <diagram name="Page-1" id="dOwAsTCdhA2n9OGqiwFK">
    <mxGraphModel dx="2052" dy="1440" grid="1" gridSize="10" guides="1" tooltips="1" connect="0" arrows="1" fold="1" page="1" pageScale="1" pageWidth="1920" pageHeight="1200" math="0" shadow="0">
      <root>
        <mxCell id="0" />
        <mxCell id="1" parent="0" />
        <mxCell id="X-yyeUIc4-xWhgOIY7qR-2" value="Import or copy/paste raw text with or without timecodes" style="rounded=1;whiteSpace=wrap;fontSize=28;fillColor=#dae8fc;strokeColor=#6c8ebf;" parent="1" vertex="1">
          <mxGeometry x="115.71428571428572" y="159.6470588235294" width="393.57142857142856" height="132.94117647058823" as="geometry" />
        </mxCell>
        <mxCell id="X-yyeUIc4-xWhgOIY7qR-3" value="Load/View an existing transcript with or without timecodesÂ " style="rounded=1;whiteSpace=wrap;fontSize=28;fillColor=#dae8fc;strokeColor=#6c8ebf;" parent="1" vertex="1">
          <mxGeometry x="658.5714285714284" y="159.6470588235294" width="393.57142857142856" height="126.29411764705881" as="geometry" />
        </mxCell>
        <mxCell id="X-yyeUIc4-xWhgOIY7qR-4" value="" style="endArrow=classic;startArrow=classic;html=1;rounded=0;entryX=0.5;entryY=1;entryDx=0;entryDy=0;strokeWidth=3;dashed=1;exitX=0.25;exitY=0;exitDx=0;exitDy=0;" parent="1" source="X-yyeUIc4-xWhgOIY7qR-8" target="X-yyeUIc4-xWhgOIY7qR-2" edge="1">
          <mxGeometry width="50" height="50" relative="1" as="geometry">
            <mxPoint x="377.64285714285717" y="40" as="sourcePoint" />
            <mxPoint x="156.42857142857144" y="283.28235294117644" as="targetPoint" />
          </mxGeometry>
        </mxCell>
        <mxCell id="X-yyeUIc4-xWhgOIY7qR-5" value="" style="endArrow=classic;startArrow=classic;html=1;rounded=0;strokeWidth=3;dashed=1;entryX=0.5;entryY=1;entryDx=0;entryDy=0;exitX=0.75;exitY=0;exitDx=0;exitDy=0;" parent="1" source="X-yyeUIc4-xWhgOIY7qR-8" target="X-yyeUIc4-xWhgOIY7qR-3" edge="1">
          <mxGeometry width="50" height="50" relative="1" as="geometry">
            <mxPoint x="692.5000000000001" y="269.98823529411766" as="sourcePoint" />
            <mxPoint x="712.8571428571428" y="216.81176470588233" as="targetPoint" />
          </mxGeometry>
        </mxCell>
        <mxCell id="X-yyeUIc4-xWhgOIY7qR-6" value="&lt;font style=&quot;font-size: 42px;&quot;&gt;The TIM Editor: Compose/Edit Text and Timecodes&lt;br style=&quot;font-size: 42px;&quot;&gt;&lt;/font&gt;" style="text;html=1;strokeColor=none;fillColor=none;align=center;verticalAlign=middle;whiteSpace=wrap;rounded=0;fontSize=42;fontStyle=1" parent="1" vertex="1">
          <mxGeometry x="80" y="40" width="1017.8571428571429" height="79.76470588235294" as="geometry" />
        </mxCell>
        <mxCell id="X-yyeUIc4-xWhgOIY7qR-8" value="" style="rounded=1;whiteSpace=wrap;html=1;fillColor=#fad9d5;strokeColor=#ae4132;glass=0;shadow=0;sketch=1;curveFitting=1;jiggle=2;" parent="1" vertex="1">
          <mxGeometry x="88.49" y="359.06" width="963.65" height="775.94" as="geometry" />
        </mxCell>
        <mxCell id="X-yyeUIc4-xWhgOIY7qR-9" value="&lt;font style=&quot;font-size: 30px;&quot;&gt;TIM Editor in Notes Mode&lt;br style=&quot;font-size: 30px;&quot;&gt;&lt;/font&gt;" style="text;html=1;strokeColor=none;fillColor=none;align=center;verticalAlign=middle;whiteSpace=wrap;rounded=0;fontStyle=1;fontSize=30;" parent="1" vertex="1">
          <mxGeometry x="295.85184873949584" y="386.42072029185096" width="548.9395758303322" height="39.49555530200089" as="geometry" />
        </mxCell>
        <mxCell id="X-yyeUIc4-xWhgOIY7qR-10" value="TIM recognizes existing timecodes (TC) and can add new timecode markers. TCs in Notes Mode are linked to the loaded AV media file and clicking a TC jumps the viewer play head to that playback position." style="rounded=1;fontSize=24;align=center;verticalAlign=middle;whiteSpace=wrap;spacing=13;fillColor=#ffff88;strokeColor=#36393d;" parent="1" vertex="1">
          <mxGeometry x="130" y="605" width="423.57" height="286.33" as="geometry" />
        </mxCell>
        <mxCell id="X-yyeUIc4-xWhgOIY7qR-11" value="" style="endArrow=classic;startArrow=classic;html=1;rounded=0;entryX=0.5;entryY=1;entryDx=0;entryDy=0;strokeWidth=3;dashed=1;exitX=0.5;exitY=0;exitDx=0;exitDy=0;" parent="1" source="X-yyeUIc4-xWhgOIY7qR-10" edge="1" target="X-yyeUIc4-xWhgOIY7qR-18">
          <mxGeometry width="50" height="50" relative="1" as="geometry">
            <mxPoint x="325.9117647058823" y="511.4395116537181" as="sourcePoint" />
            <mxPoint x="398.9893457382953" y="450.4872364039956" as="targetPoint" />
          </mxGeometry>
        </mxCell>
        <mxCell id="X-yyeUIc4-xWhgOIY7qR-12" value="Insert new TC anywhere in transcript with keystroke ctrl/cmd-j" style="rounded=1;fontSize=24;align=center;verticalAlign=middle;whiteSpace=wrap;spacing=2;dashed=1;strokeWidth=2;fillColor=#f5f5f5;strokeColor=#666666;fontColor=#333333;" parent="1" vertex="1">
          <mxGeometry x="178.23842737094833" y="983.8808479467258" width="349.94897959183675" height="101.58712541620422" as="geometry" />
        </mxCell>
        <mxCell id="X-yyeUIc4-xWhgOIY7qR-13" value="" style="endArrow=classic;startArrow=classic;html=1;rounded=0;entryX=0.5;entryY=0;entryDx=0;entryDy=0;strokeWidth=3;dashed=1;exitX=0.5;exitY=1;exitDx=0;exitDy=0;" parent="1" source="X-yyeUIc4-xWhgOIY7qR-10" target="X-yyeUIc4-xWhgOIY7qR-12" edge="1">
          <mxGeometry width="50" height="50" relative="1" as="geometry">
            <mxPoint x="332.7735094037615" y="531.7569367369588" as="sourcePoint" />
            <mxPoint x="328.65646258503403" y="460.645948945616" as="targetPoint" />
          </mxGeometry>
        </mxCell>
        <mxCell id="X-yyeUIc4-xWhgOIY7qR-14" value="&lt;font style=&quot;font-size: 24px;&quot;&gt;Format text and TCs with Markdown to for OHMS metadata fields&lt;/font&gt;" style="ellipse;whiteSpace=wrap;html=1;fontSize=24;spacing=12;fillColor=#d5e8d4;strokeColor=#82b366;" parent="1" vertex="1">
          <mxGeometry x="678.9100000000001" y="485.99999999999994" width="272.15" height="238.21" as="geometry" />
        </mxCell>
        <mxCell id="X-yyeUIc4-xWhgOIY7qR-15" value="&lt;font style=&quot;font-size: 24px;&quot;&gt;Format text and TCs for non-OHMS output&lt;/font&gt;" style="ellipse;whiteSpace=wrap;html=1;fontSize=24;spacing=12;fillColor=#d5e8d4;strokeColor=#82b366;" parent="1" vertex="1">
          <mxGeometry x="678.9100000000001" y="805" width="262.15" height="230.54" as="geometry" />
        </mxCell>
        <mxCell id="X-yyeUIc4-xWhgOIY7qR-16" value="" style="endArrow=classic;startArrow=none;html=1;rounded=0;strokeWidth=3;dashed=1;entryX=0;entryY=1;entryDx=0;entryDy=0;exitX=1;exitY=0.5;exitDx=0;exitDy=0;startFill=0;" parent="1" source="X-yyeUIc4-xWhgOIY7qR-10" target="X-yyeUIc4-xWhgOIY7qR-14" edge="1">
          <mxGeometry width="50" height="50" relative="1" as="geometry">
            <mxPoint x="699.1906762705081" y="689.2169811320754" as="sourcePoint" />
            <mxPoint x="859.7555022008803" y="602.8679245283018" as="targetPoint" />
          </mxGeometry>
        </mxCell>
        <mxCell id="X-yyeUIc4-xWhgOIY7qR-17" value="" style="endArrow=classic;startArrow=none;html=1;rounded=0;strokeWidth=3;dashed=1;entryX=0;entryY=0;entryDx=0;entryDy=0;startFill=0;exitX=1;exitY=0.5;exitDx=0;exitDy=0;" parent="1" source="X-yyeUIc4-xWhgOIY7qR-10" target="X-yyeUIc4-xWhgOIY7qR-15" edge="1">
          <mxGeometry width="50" height="50" relative="1" as="geometry">
            <mxPoint x="671.7436974789916" y="618.1059933407325" as="sourcePoint" />
            <mxPoint x="824.0744297719086" y="589.6615982241952" as="targetPoint" />
          </mxGeometry>
        </mxCell>
        <mxCell id="X-yyeUIc4-xWhgOIY7qR-18" value="&lt;blockquote style=&quot;margin: 0 0 0 40px; border: none; padding: 0px;&quot;&gt;&lt;font style=&quot;font-size: 21px;&quot;&gt;&amp;nbsp; Loaded AV media file&lt;/font&gt;&lt;/blockquote&gt;" style="html=1;whiteSpace=wrap;container=1;recursiveResize=0;collapsible=0;align=left;fillColor=#dae8fc;strokeColor=#6c8ebf;" parent="1" vertex="1">
          <mxGeometry x="190" y="458" width="267.29" height="71.11" as="geometry" />
        </mxCell>
        <mxCell id="X-yyeUIc4-xWhgOIY7qR-19" value="" style="triangle;html=1;whiteSpace=wrap;fillColor=#60a917;strokeColor=#2D7600;fontColor=#ffffff;" parent="X-yyeUIc4-xWhgOIY7qR-18" vertex="1">
          <mxGeometry x="16.468187274909962" y="20.317425083240845" width="27.446978791516607" height="30.47613762486127" as="geometry" />
        </mxCell>
        <mxCell id="X-yyeUIc4-xWhgOIY7qR-20" value="&lt;font style=&quot;font-size: 28px;&quot;&gt;Export indexed text file in OHMS.xml format&lt;/font&gt;" style="shape=card;whiteSpace=wrap;html=1;fontSize=28;spacing=8;fillColor=#f5f5f5;fontColor=#333333;strokeColor=#666666;rounded=0;shadow=0;gradientColor=none;" parent="1" vertex="1">
          <mxGeometry x="1219.9957142857145" y="266.00470588235294" width="203.57142857142858" height="252.58823529411762" as="geometry" />
        </mxCell>
        <mxCell id="X-yyeUIc4-xWhgOIY7qR-21" value="&lt;div style=&quot;font-size: 28px;&quot;&gt;Export A/V index as XML,&lt;/div&gt;&lt;div style=&quot;font-size: 28px;&quot;&gt;VTT, csv, or text&lt;/div&gt;" style="shape=card;whiteSpace=wrap;html=1;fontSize=28;spacing=12;fillColor=#f5f5f5;fontColor=#333333;strokeColor=#666666;" parent="1" vertex="1">
          <mxGeometry x="1219.9957142857145" y="575.0035294117647" width="203.57142857142858" height="265.88235294117646" as="geometry" />
        </mxCell>
        <mxCell id="SdDO5gw--GSXWpUlC6ao-3" value="Other A/V indexing system or as text" style="shape=cube;whiteSpace=wrap;html=1;boundedLbl=1;backgroundOutline=1;darkOpacity=0.05;darkOpacity2=0.1;fontSize=24;fillColor=#e1d5e7;strokeColor=#9673a6;size=20;" vertex="1" parent="1">
          <mxGeometry x="1610" y="840.89" width="240" height="240" as="geometry" />
        </mxCell>
        <mxCell id="SdDO5gw--GSXWpUlC6ao-6" value="" style="endArrow=classic;html=1;rounded=0;strokeWidth=3;entryX=0;entryY=0.5;entryDx=0;entryDy=0;exitX=1;exitY=0.5;exitDx=0;exitDy=0;" edge="1" parent="1" source="X-yyeUIc4-xWhgOIY7qR-14" target="X-yyeUIc4-xWhgOIY7qR-20">
          <mxGeometry width="50" height="50" relative="1" as="geometry">
            <mxPoint x="984.2857142857142" y="664.8235294117648" as="sourcePoint" />
            <mxPoint x="1052.1428571428573" y="598.3529411764705" as="targetPoint" />
          </mxGeometry>
        </mxCell>
        <mxCell id="SdDO5gw--GSXWpUlC6ao-7" value="" style="endArrow=classic;html=1;rounded=0;labelBackgroundColor=default;strokeColor=default;strokeWidth=3;align=center;verticalAlign=middle;fontFamily=Helvetica;fontSize=11;fontColor=default;shape=connector;entryX=0;entryY=0.5;entryDx=0;entryDy=0;exitX=1;exitY=0.5;exitDx=0;exitDy=0;" edge="1" parent="1" source="X-yyeUIc4-xWhgOIY7qR-15" target="X-yyeUIc4-xWhgOIY7qR-21">
          <mxGeometry width="50" height="50" relative="1" as="geometry">
            <mxPoint x="1174.2857142857144" y="718" as="sourcePoint" />
            <mxPoint x="1052.1428571428573" y="598.3529411764705" as="targetPoint" />
          </mxGeometry>
        </mxCell>
        <mxCell id="SdDO5gw--GSXWpUlC6ao-8" value="" style="endArrow=classic;html=1;rounded=0;labelBackgroundColor=default;strokeColor=default;strokeWidth=3;align=center;verticalAlign=middle;fontFamily=Helvetica;fontSize=11;fontColor=default;shape=connector;exitX=1;exitY=0.5;exitDx=0;exitDy=0;entryX=0;entryY=0;entryDx=0;entryDy=62.209999999999994;entryPerimeter=0;" edge="1" parent="1" source="X-yyeUIc4-xWhgOIY7qR-20" target="SdDO5gw--GSXWpUlC6ao-1">
          <mxGeometry width="50" height="50" relative="1" as="geometry">
            <mxPoint x="984.2857142857142" y="664.8235294117648" as="sourcePoint" />
            <mxPoint x="1052.1428571428573" y="598.3529411764705" as="targetPoint" />
          </mxGeometry>
        </mxCell>
        <mxCell id="SdDO5gw--GSXWpUlC6ao-9" value="" style="endArrow=classic;html=1;rounded=0;labelBackgroundColor=default;strokeColor=default;strokeWidth=3;align=center;verticalAlign=middle;fontFamily=Helvetica;fontSize=11;fontColor=default;shape=connector;entryX=0.01;entryY=0.483;entryDx=0;entryDy=0;entryPerimeter=0;exitX=0.998;exitY=0.539;exitDx=0;exitDy=0;exitPerimeter=0;" edge="1" parent="1" source="X-yyeUIc4-xWhgOIY7qR-20" target="SdDO5gw--GSXWpUlC6ao-2">
          <mxGeometry width="50" height="50" relative="1" as="geometry">
            <mxPoint x="1486.4285714285716" y="598.3529411764705" as="sourcePoint" />
            <mxPoint x="1405" y="691.4117647058823" as="targetPoint" />
          </mxGeometry>
        </mxCell>
        <mxCell id="SdDO5gw--GSXWpUlC6ao-10" value="" style="endArrow=classic;html=1;rounded=0;labelBackgroundColor=default;strokeColor=default;strokeWidth=3;align=center;verticalAlign=middle;fontFamily=Helvetica;fontSize=11;fontColor=default;shape=connector;entryX=-0.01;entryY=0.499;entryDx=0;entryDy=0;entryPerimeter=0;exitX=1;exitY=0.5;exitDx=0;exitDy=0;" edge="1" parent="1" source="X-yyeUIc4-xWhgOIY7qR-21" target="SdDO5gw--GSXWpUlC6ao-2">
          <mxGeometry width="50" height="50" relative="1" as="geometry">
            <mxPoint x="1432.1428571428573" y="890.8235294117646" as="sourcePoint" />
            <mxPoint x="1500.0000000000002" y="824.3529411764705" as="targetPoint" />
          </mxGeometry>
        </mxCell>
        <mxCell id="SdDO5gw--GSXWpUlC6ao-11" value="" style="endArrow=classic;html=1;rounded=0;labelBackgroundColor=default;strokeColor=default;strokeWidth=3;align=center;verticalAlign=middle;fontFamily=Helvetica;fontSize=11;fontColor=default;shape=connector;entryX=-0.022;entryY=0.481;entryDx=0;entryDy=0;entryPerimeter=0;exitX=1;exitY=0.5;exitDx=0;exitDy=0;" edge="1" parent="1" source="X-yyeUIc4-xWhgOIY7qR-21" target="SdDO5gw--GSXWpUlC6ao-3">
          <mxGeometry width="50" height="50" relative="1" as="geometry">
            <mxPoint x="1432.1428571428573" y="890.8235294117646" as="sourcePoint" />
            <mxPoint x="1500.0000000000002" y="824.3529411764705" as="targetPoint" />
          </mxGeometry>
        </mxCell>
        <mxCell id="SdDO5gw--GSXWpUlC6ao-12" value="&lt;font style=&quot;font-size: 28px;&quot;&gt;Export from TIM Editor to text files&lt;br style=&quot;font-size: 28px;&quot;&gt;&lt;/font&gt;" style="text;html=1;strokeColor=none;fillColor=none;align=center;verticalAlign=middle;whiteSpace=wrap;rounded=0;fontSize=28;fontStyle=1" vertex="1" parent="1">
          <mxGeometry x="1166.78" y="159.65" width="310" height="79.76" as="geometry" />
        </mxCell>
        <mxCell id="SdDO5gw--GSXWpUlC6ao-14" value="TIM project file in JSON format" style="shape=card;whiteSpace=wrap;html=1;fontFamily=Helvetica;fontSize=24;fontColor=#333333;spacing=10;fillColor=#f5f5f5;strokeColor=#666666;" vertex="1" parent="1">
          <mxGeometry x="1246.51" y="905" width="150.54" height="190.09" as="geometry" />
        </mxCell>
        <mxCell id="SdDO5gw--GSXWpUlC6ao-15" value="" style="group;fontSize=23;fillColor=none;strokeColor=none;" vertex="1" connectable="0" parent="1">
          <mxGeometry x="1611.43" y="255" width="240" height="240" as="geometry" />
        </mxCell>
        <mxCell id="SdDO5gw--GSXWpUlC6ao-16" value="" style="group" vertex="1" connectable="0" parent="SdDO5gw--GSXWpUlC6ao-15">
          <mxGeometry x="-1.4385714884520264" y="-47.196652719665266" width="239.99999999999997" height="240" as="geometry" />
        </mxCell>
        <mxCell id="SdDO5gw--GSXWpUlC6ao-1" value="&lt;font style=&quot;font-size: 24px;&quot;&gt;Oral History Metadata Synchronizer&lt;/font&gt;" style="shape=cube;whiteSpace=wrap;html=1;boundedLbl=1;backgroundOutline=1;darkOpacity=0.05;darkOpacity2=0.1;horizontal=1;verticalAlign=bottom;fontSize=14;fillColor=#ffe6cc;strokeColor=#d79b00;" vertex="1" parent="SdDO5gw--GSXWpUlC6ao-16">
          <mxGeometry width="239.99999999999997" height="240" as="geometry" />
        </mxCell>
        <mxCell id="SdDO5gw--GSXWpUlC6ao-4" value="" style="shape=image;verticalLabelPosition=bottom;labelBackgroundColor=default;verticalAlign=top;aspect=fixed;imageAspect=0;image=data:image/png,iVBORw0KGgoAAAANSUhEUgAAAIYAAACGCAYAAAAYefKRAAAAAXNSR0IArs4c6QAAAFBlWElmTU0AKgAAAAgAAgESAAMAAAABAAEAAIdpAAQAAAABAAAAJgAAAAAAA6ABAAMAAAABAAEAAKACAAQAAAABAAAAhqADAAQAAAABAAAAhgAAAAByJ2jBAAABWWlUWHRYTUw6Y29tLmFkb2JlLnhtcAAAAAAAPHg6eG1wbWV0YSB4bWxuczp4PSJhZG9iZTpuczptZXRhLyIgeDp4bXB0az0iWE1QIENvcmUgNi4wLjAiPgogICA8cmRmOlJERiB4bWxuczpyZGY9Imh0dHA6Ly93d3cudzMub3JnLzE5OTkvMDIvMjItcmRmLXN5bnRheC1ucyMiPgogICAgICA8cmRmOkRlc2NyaXB0aW9uIHJkZjphYm91dD0iIgogICAgICAgICAgICB4bWxuczp0aWZmPSJodHRwOi8vbnMuYWRvYmUuY29tL3RpZmYvMS4wLyI+CiAgICAgICAgIDx0aWZmOk9yaWVudGF0aW9uPjE8L3RpZmY6T3JpZW50YXRpb24+CiAgICAgIDwvcmRmOkRlc2NyaXB0aW9uPgogICA8L3JkZjpSREY+CjwveDp4bXBtZXRhPgoZXuEHAAA8jklEQVR4Ae19CbxdVXX3vve9zHPITEgeIAhJgDAkgKAQQgFFLINQVByg+FMQattPxVonPmqdftZSv2JVUJwHWrBYkSoEsagQ5gSiMhlCiAQiYowBkrx7vv9/DXvvc+7w3stkoNkv++y117zXWmef4d73EsLOtjMCOyOwMwI7I7AzAjsjsDMCOyOwMwLbKQK17WRnBzHz4XqYfVX3+N/MHbpx6NrBYeTIZr/WrQsgPvfUU8s2hHD6phA+3GhmevFjXpSF0dPzlqHrep8bP7jePaXeNXRKras2o1Z0T63XwqSi3jW6VvSOD0XX2BB0+TUbme6iVjTwb01R715XFBufrhe11Y2id1Wjt76yCOue2Fgf/sTqob99Jtx/FQrnxdteFIUxfvwbRg8aN3TG4BDm1EPXfsjzrBDqM5D4KeijkfjhoVarSyHUvAx86T5Wk1wYogiNothUC8X6UA/PoKhWFaG+olaEpZsaG+9rPFcsK4raylWrPr++quGFPG8XlR1+TeN3PXf68O6wf1d344ii6DqkVqvtHWp1FEJ9aA0ZDNgecECNYEQxsCh0sQrLAgXh+LRkL4lQOFQEQrXQMBRG/hSNdfVasQrgL4ui9+ebNm26deOzv122evU1TyZtL0xIY/UC8X3y5FMmdQ+ZML9rcO9CuPwyXA72qYWu0SgI3RBYCFIEPmJ5rYoirjoCHSJgxSEDD1ISGAwueAsiRYJjYw003ofxlt6NG29cv/bZu55++utrOyjfYUn9icyf2PmjuydNnzpryKDhx9VqxSuR6fmh1jWyVuvKigE7BHcEXi24L8jlgktTWBfgOwNxxMhBSSXYUEhzuWEuKCsMEr04SECBFDLn2GtF0vhZo1F8v/H8HxetXPm1h8r6duxZHp0dytOenqOHbmhMPaSre8gbkMQTQujq0WLIC4JJxu4gic1g2SW4HFKI92Xq6CUiCxaU06sh8GJQPEvCIRlRCIojn8H5DsICKXqxpTR+WQ+N727sfe7bK3+9YlkIP8bTzo7d2kXkT+j16YOnTh9yTPeg+tm4yTsaxTCpuSB4H2kFIUnPYS8GLoHL8zIALKv1JftIvv62rDCkZji37oXBucOyi+gOEqRIGsuL0Ht9b+/GLz++/Mpb+2v1T8G3OdHZVn7WJ00787DBQwafjXu8k2v17gm1OneHbuTTCsEuFeVLBmlcRquCAF5W6MvUUUrFUbKa0qSyPibeGnMuhcC5470QDOdFQToLA4uRQpEikR0E897lRa33W88///zXVz/21ftM+w41dIrIdnN08uQT9+geOv7sUCveVK91zwgsBrmHaHPZ8N2CWUdRaKK5FO1pziXoEhWX5oScpnB/jnkxsDSyuRSC47xYrCiE5kVi9yANXk16lxX12ueeX/vUt3a0JxmNWn9isg14pk07eHjRvfepXaF+YajX59dqg3CFQDGELuQMlwfr8thpu4UWQnWXaF0QnYsB1AGuXm8uPRBZUbAOpEgM17RrkIGFYaNdYkKxCe9INuEdSeOGDb3Fpb9Z/vANO8r9xwBD40HZ8nH8lNNnDRvc9W4UwBm1+qDhcsmITxq6U6RHTxQCz3zfKXyXEFx/i0KXqjrd/4Eu3xIP8VQkjmPSswIpFQdLgsSsOOQSk3YPvENbA7WXr9/45GfWPHbtKvfwTzXi1Nze7ejuydMOPWPI4No/45JxfK0+eFBeFHoJ0d0i3ylk97BC0J1Adw3Ckux4n0FZFpEWjBSU8WhR5HiuPZ/3BSd+NUF+x2EEUswaivb4I3ghJ5gsQjI6eIajco4cVB924MjRc1b+4fdLfi08f6LDdi2MiRNfNWXshPF/X6+HD2GXmFmv49IR7yW4S9AdLwoGWXcKH4GwQBveg8qRFGaFoM0dVy6IMp2skkDqbtNpt6qXWlS/yvtcsM4uyl1UDEU1XAn1yijCmCt1d6AXjB5zYGPIoLH3r1+//E/ymcx2K4xxk0+ZM3TI0E9i9edilxiKpw7ERYtBE8+C4JwBSsXRdPkQugXUYAZUAkxRCa4ApstxPoLGf9JNjqQOjdqEU4WMU7E6AZVTse1k8cjJiQJGZc1HwZg84foYvPtY0D143ITu+u5Lnn32F9v97el2KYzJu55yzKDu2r/g0nFsrWswcs2iYPIrj6JyD+GXiOqIgEn0GdAEW8osJwyqBlwLjHkhjk1Hya3AjneayipfO9ioTK744rI6iu6Ip0nykYaG0UHBC059jXNjFD4Gp2jMGzR00N7DRu2z9I9r79+un79s68KoT9n15NPrtdql2CXm5E8dujsw+XqjybDJzhFvMFE4Ek2GKYeJZZQ1zAnm3HB5NizYSUR5BC38+Vyx7Y/JBnlaFUcZLzPzigLuocKklooi0s0nWUexd71eP2TEqNkPrFu79FGR2Q6HbVkY9cnT//wcJPuf6rXBu+ou4TsFzFpBpMuI3Te0va9gsPKisLkEzwJJeruikPQkvixFFmbVJ3jqiHpdJs9Gwok9mTpOx+SHuC3WRQP04iN8BSsqtchzz0xnUeyKz4mOGD1yziNr1y59MBfbVvC2Koz65KmvORdJ/0fcZE6oy6VD7ylaFYQXh549fglBUHz3YFgloDpq6CSMgo9ziSMPAuhIEYlehitFkwzGRBZnI4/PhZ4TnMiRbKAJ2Xl0zI+RRQUiu4u5DpehydgwQSntUtTDvDHbqTi2RWGgKE48N9S7PoKnjgnx8uE7RPZ62wtCR4SGuwWCIK/AJZKEESGJUntYAwh6jKZHlThSfV6BScxIBFt1SkkzP3yaC6ufpOQKM5j4fOpKHI1v/ggZNhKb4ahVbBcojmLeCBQHLivbdOfY2oVRnzztVeegKP4RBYGdIn8cTfcTpYKQXSErCAkMo8XwMEhKE9hwjKkmQnlkntFITTiBZO54JSZ80mJslaFEV9UZR0IkKNMtfiV25cHRCyGRyhBZyhjMgCmKXXBZOXTkqH0eXLd22Tb7KH+rFsYuU084BTeV/4SCmMib6jpeb+ulwx5LW+4WXD7S7IUgoxcKo2N0BsXgxM/IubzDPlKnwxzZBGGgwhlG8R2OkVcVt+AEhzBFzmaeVrJeJCKOi4aroXQOy5yXlWI81OCGdN/bURyPNxvZcsxWK4xdJh93TFet/hncU0zXewp/R6FPHXqZ8PcTNvo9RBxth5BoEGZU0AVqBUukjE9hiaSAIi2ynGqjLjQZnK6o8lFtlnE6Mw3RTAWrqqOgcmstRMnEA1TCRqEEZHTh40Hrhq/ksSOH2YOG7Xnrs+t+9VQS2jrQVimMceMW7t89qOvSUBs0h5ePVBg887UI8o/O/fKguwTpXDGjAFhGnTus9xxkKeM1BOSiLGdKF0izYThi2IRJBpFRZIuj8Tl/hUOpzlMhctpEqiCib2TWJ5QoVto9iEWL4s7L6sDO0WjsNqjeNXXokJk/Wb/+wXXKvHWOW1wYI0bMmzJkxLBP1EL3sXJPEV9eNe8UMdESGNs1sGovEC428vCywxaLRSZERB5iZB4DzQhqFFWn0nnUZhHGIHYcvbmjqauKt0FX2XTuzDJ64kkizALwFfmYeLhsfN9j3+7uQd1/WDvx5hCWb7Vvhln01ceBH2cPHj56zDvxAopfrIHneTFwReiSAo4EdU5cuem8im3mK0tt2SwFePP0DEw+ra3dWulF4lLYyxd4xi523Yl1N+7md9fPnTp9lzdt3jpaS21RYYyfOOnk0Ki9HU8geLnJouDCtOuSuBgadnxrJ8rYgfCWJXXmCauOpDquldyW4LZMr4Qomtf1J1yClEV3TD3aZbrWPRLBv2j85JMOi2q2ENjsS8nI8S+fNai761JcPmZWPxDjjSaLJN1w2mLlssBqxzxeInSJLJ5YWJRlMVmhKcyVmp5IU1zzZYO6nD8fDaZqgtIS5Ji+RyuEgdRDf8y4X8IL5T7CIRfXddFDGs8cKBrjuur1aaEx7oYNGx77Izm2pG3mjjF75JBu+ZLN/nL5wP1AKgaujsvwpah7cWZAnFf4ygv2hfuYLzXD4UsxnVtOVzhhCKVZZz2kVnnzeQ7nmoCPpAjkDB1gRCoFK+Mj0k8gxF9eDYQTRoyZci4Im5nXpH6zFIzbZeLJWOkZ6dNRddJXIOuIhzItme4L8mC2CmQrHPU5Hk/6Avo8p5Etx5PGRlwrfE5TejsucmpzDh8dvyUj4hhPOC0I2Um9OKQWunBJb5yH770cuSWWKDvgwhgzZt4e9a7GhbivGO6PoF4Q6kxWCFyLe4jHsNatHb7CHdkiYAzVeUWu3VS+eteKSH3VnviiNQHizGSUr2XdJRX9hGLkYgwTBio4YaHEzl2bdwZd07sGd79j7Ni5+KXtzW8DLYw6fgHobNQTvrgLJ+w+wStXvd18ZwYuqYnJj+msB1YISlXdOQyMFId8G7NfpqO0ZD7OqCiTd7g8lq04LRMbAJjiTaFs90CRaHHUXj1oyK6nDkBlE+uACmPU+HmH4Qvcb8qLwitWbgClpOXQZKgzQgPVLlyJmqDy5QB4ISndE5WSQXxOc9jQsUCShPvrkkJhQUhROJVjpgtwEzlnzXjVUi5bYuww4S7hZC0RRRDWez3c9w2vd9ffNm7ckTOcc6DjAApj9uCu+qCzQ1GfITea9E6ueTTpnvrYHzcsKDE2BOLEIMclvGrO5wrnmNx6+jY3sTkX4WzuUxZJ1iXTzHbGqvpdQGdlBme2sVQtwDnZRR0R8QTiJHKlOCtKo20xl1wQ5q6BtBbhkEHDRp2ZCQ8I7HdhjB4//BiYPdm2KnFALZljjpFpwkVvKussxSoyEQCjEE0gl8vxwupEjugyzXFkojrHyUxw6UBaTk+UZsh5q/w6VzNOS6NRM3VOo2ndO9QH4jNaJqFgmRZnfoLG2COtNdyIhtrZ4/FaoUlNPxD9LIwe/M2J8GZsVfh+BY2y04u8AHK4g+WmJMXldRBiuMp81TmFBSdszusjiRksuvK5SmtSiG/XyZc353P1rtNH8GZgeVIiRKWtsZHcDMSw81KCCefIDfOE3/3dp2vQsNc1C/WN6VdhjBo3hn+Y5BgpCLXch+Z2y/N0lumKBS4mj3RidSwFVHhcviqjUupcxuOaSrLkaqFfhTscm2V0R8rtmTjsKdZpNOk48rgu4/chsis9Tp3eYvT6sPIAhxYHvhtz8tixh/W0EOmI6k9hdOPt5hvwa4P4rXOyS13K0aFOFjy5zYvTRVdlY9hyAYFJKSPjTBJOTYbhXEAeDCcjNAgqx7sHjutrdH6qpj7ye3NYdegsw0VewzmJvqljUESkd9fL0Zl9zGkOZ+UhOzpuRkOYVR8yEu+dBtb6LIyRI/ffp1YUJ8SiaLqEVAzmfudwZKsiMY9BiUwGeDHkMs5PFqcrrELE5fNmmHQ1KRBn1snbVwMvhOUGNbLm8oTRZDDYPFJ0jnNfRaJ0KIln8iWmlhO5loDCHQNwDV+XqtVPQR4ntWRvg+yzMGqD6/ijJfWedBlpowloX3LiMIyvUrJBRiIY3ConEAy6aCKc6FHGUVHY+IXXBRxHHQmXFBKnPCQLi6BskhBKNCYpBrKIDyIgetQlm5MOfv4kPNkqOCeTz+yJjOB5yLrgVC91CjuBPpsXSXFI9/CxA3ob2rEwRo7ccxL+nOFJXhSdLx2+EPfWVhMXmPBOSYsHreVqVWcMsghWAixqlU9zkWs3uKTbeN0d80+1+lHdoZhzqw9pFsUjB9fAf+Rhc16CCat4pedYYrS5vM99dLzrtbmjnS2OLAq/8NeHd4VBJ4UwG3/YsH+tY2E0asPmQ81B6RtUrZRmngnIA3qGVqk8DMZDTuFTZuUALIFUnOoh7J3aDBYWOQDjOBtlTk79EUNiTPmjDpej2thyHQ5HIgDHmS6Zmh1hMzz5ok1hUiWl9Sle/DcxhTO82Mvtt4NNQSTzUiKXEwyNV4wbN3KfSOoDwLdr2rY6PpFZCM38rN9uOau87oiPSudMvrKKBe02bUz4izOOCC996Yyw5567hpkzp0YlT615Jjz15O/C3fc8HK793p3h3iWrKdjcCmjDZy3Llny0RJtzwPsReC48WaQC3BOBz/EUUW8EIj/8WnL3BzmNbf+DLonwFZ8/M8w7ZK84J/DNb90SPvqJm0o4q+osbbTrDbBMJc1h6pTh4UfXX+TEOB573EfCqif8W3kUSDpOPXm/MGvW9HDg3D0x9kQZAsuW/To88cRvw+23/zJ84Ys3QyrJlRgZD1l/rSfUh70CtCVleutZ28IYNmyP6aiHI/2mE7qbGl1JaF+UjtN3HRPe+tYTwqmnLAjDhw9tkiVi4oSx0mfN2j284fXHYrHLw//71+vCTTc/IvFhMST9CXJlDIZgoyOcKZalILHiGSMApVKBcFZuVKJtxIhmf192+N4gLkqqMFOJJKfSZlfoTivCa0+dq+TK8bD5M8PV194PZeSl70VY8IrdwwXveGVTMeSijBn7McccEs4558TwgQ9cHn50I/7uW6smMcAvOnb1HhXCtC+GsGp9K7Yc1/ZSgo/U8bumAdFoTkiuwGFZl03+bOG+4d+v+nA46w2vbFsULpePPCsu+9fzwwfeh7/ayLDrP4MZuObGQEqjAxZcD3AZzxl5W+sR2Q7kmTMnhTmzJkA6/SRdLohR1CtPsleEgw7cXdypHpRdjkJ65wVHIQbndSyKqo6JE8eFM8442tBJV4lPiiPMHTlyck8J32bSdseod9WPQFGMbi2nC9eSoSPuTBHe9X9OCuefd0aT2OLF94c77/xVWPHYGpSaSu42Y1I4+KC9wvz55be2r3/9wjB16vhw/oVfV9W6qCadkkzQ6I3qhB9NlxaWNux55You9zepVEwzfv3651HcQ4TxdWfOC0s/cJ0JVXhl6lpyWhH2nz0xzJvHHSeEXJ8psqEIf3XBK8Lb33ZiCb0Gl9v//uEdYeXKNeH3v8cXs6z4Z8+eEQ48cC8U0B7C/9l/+57EoSScTfRyEmZ0DxkyP6wLyzJSS7BNYYzHX9sNh8hu0ZSU8qKplb7it6PCX5x+eFNR3H//w+HDF38l3H3vKqjEBiX64KaMfAFzQ5h7wLTwoQ+eKVuje7lgwYHhEx99Nrzn766WstNScqqPMEx3mHdDCV9pki4fJZqriKML4Y3QvrtF7G2LHwgLjt5P5ocf9lKM34+0WGzAqHTSIRiZFuHVrz4gytx22y/DggVpPmbMMJGeOnVEeNMbcUuXtZtuujucd8GXYYaKUP4yNgAW4aqr78LYkNid/Ofzw113rzRJ5c3UZGBtcK2oHw7EV9ChqH1reSkZPGJMD9S3uIzISqEtM25OH3zQjPDBD761ZGnRosXhNSd/BDeX6jTPbA0mR7LqznPPklXhlNd+Oiy6CYvN2kknvSyc/eb5IqNByYgARZ/rFD8ynOM5WldIbZY1kYU+OW+iPvDAqjiZMGF0OIqfZEdeanZ9lGUzPTJVD494WXoYyPWRe/qu+I8Q8POXbzmydNldjJvK8y74irokapNvakl1M7YfvPjfo12liYDiCErjacETsj5n1Ki9xxuy7dCyMLpqxSyomMIzsdqSe6BYMsjznvechYWx+rUtXrw0nPu2yzDRBVSDrljV5mfEee+4Uu62XQfHc84+TnRIwHOCwaZdeSyxplU5siSqjtIKMo2G55C1xx57OqxZ8/uIOf74ObIi2i3ZxiwVjOoi/ehXzMST2OQof9V/3BlhBdTg3Ll7lPBXXnkD1KmeGENyOM5H2pVu4qJOdRqmNOCGfo9abVjZWIlDJy0LA0XBvRO35qgMs5HO2IgQDVz8mWccHg6dv39Uv379s+Fd7/5c8yKwGAmmL8pHYg2+4MLLcR1+LuqagCeXd164APMWi6UMuugUus49eEqhXIYXO1F9BFzLfnMmRJwDS+971MGglxPT2aSXeFpzbUU44bgUl2XLHs0eTaNKWUP1cXTRjx8STdF32sr0qrTaI4kWhVdGUo3G0UE504vx+OwrbWGqqOnYqjBYELgbzLcL1SzJI2jBdWeOO46XrdSuvvrGsPLxZ4BQDh3dO1GQaI6mOODHf/OHcM13/4ez2F57Wru3uaZLiiNZE0X0Ufx0L41XAkW4VSvCHrvvUiEU4Y47Ho64CRPGhKNfPlN1m34SacV/kv0QDj885eCeex8xn6I6A5r9EdX0FS0eFSk6ZFUgyCgc5NIe82SSjhdlAfcZXWG2wu2PLQpjwvhagf8RqElG3UtG1IkZu40LCxeWC+PzX/i+1Q54PHgE6SjmPiom8fgir7jixyXr3DUWHNW8+yk/WU2H6XY9Od5tgVPtlywQmfwok4rwwx/9soQ6/jhuqLSSfjiXLnrIXoS3vPHgwELy9r3v3S14n3PUSwhe3uEdTt7OeYv+7pDvpDFuYoecZs9Hup8pkBhEXzICJYvaS0LowQbQvjUVxqBBYQqe+NjNkjtAJQkWw8Cc+KpDSYjttsVLwmMrdbdwfuV1WYySQIjQceiMiyAE3OOr1obFi38RdRI44gg+EVSa6DF59406O+DdZkWTeUF/mhvfTC5btiISuAuIzxWbSbf6dMghiL+1Rx9dHe5d+oTJOVZHrvmhh9NNLrHnnHNCmDaV/2dbFiPCtrbySAmlOT9HXY3LK4+c8EWjB4/gHW9AmwoDv6k+BUpHU40a8UENqEE6QXyBR7vymfzgA48Cbc5wyB32RRGtCkQH4TzQhB98yB+/hDnstdeuCpSO9EN7Li+6xQXV20wTx0qaRAZ2Z80q27mGbyWBl8uASejlpCfaVlkSk71pU0aEQw9NxbxkySNCpb+PPvqEafKhCF//xk98IiPfCl/5xQvDwgUoLokn0FwqD9I52DpkVLzHXpQIt0q4jHDVAv6EQn1ghYF7CzyPheHRtil3J9QHd64IL9lrpvpgx6VL9abJHUxumQwUCM5HGrKFuQwXcX92w0fVI1u8ptbFZnpzndTrug2vlg1v/saBPogfEaOA4fUykGgnHM+bSteYRtEBmdNPO6j0+PmD6+8x/UX44x/TzbUZQeE9Ea699qfJACB+rvTZy/46/Ntl54QDD5gq9nxNEkOz734IzdfMUToHrg1jnIexoas+iZh2rbtKwIunqVCEnSRTDFj14g2jfGClNGJHjBheUvHTn/lLNZPnQBn+wz6GJx4giNRBcTp1HFl+fhsLLLWeHgam3N7/vlcBoRoTRTbLNG2CxIkmbPTJfYsc6uuS+1bjTF8dHz0XLpwbir+/RrlsOUkHPpI+aM+ogW8vb7qZN7CRMdL4NKInRAjvfu+3w8hRQ8MxCw6OdAL8PIT9/mWPhJ/cfHf41KevgyrqQo+ji6RciTmhk5bZrvHE7xpQYdShNhMwwxJrc0St4YgigdGenunukYyPrfwdRiSLX0YFnS84fRTRUpGov1IcVE9easGB9xl5a/VBHD9421rNk1PVZ2EW9BL8eW9/J0F/3vLGeeHKryzORJSb9wbz5qWnkZ//nCcLaViYLDATEZBIpb39/C+FD73/t+GUU15R2nHINhuvv9nf/OYTw9VXLwqfv/x6vCp/RuIr+lkEot9sycR0A9Y1kqfoxpmf5VmcKB1AL7VuJDLeX2SKqAyMolQN+LwkTpbE5/wcJShl5yKOMkKnrMm3S1TV3Nabq99zD9ijrNJ9wnj9f+NykLV5cnOpvsvReE8/rXzG/+D6u7EsvIGWtWFsapDm0vHD48WXfDe85exPhkWL7mjiJIJFedZZrwrXX/fxcMZr54mMvuH2/91A9WSeRd3Uz95o+zkYLeA7ezrE41AkZHxcpKBVkSiE9+o8CTkc5Y3utDR6wkVOAgS9UV8zLPaS2u0AZes0a/oImfC8HORvQffbrwdLUN/z9R18EG4YrfFGU19WEaG61q171sky6knAglFdjNrd9z4e3nbeF8LRC94Vvv7168NTT3EnLje+af7Yxy4Ml1z8OjUvZIu5x9h0Rv8ED8b6xok8ljWmWeUeY9RgqB1LB/nRE0dxOruvUDwrE5cLGOFbzvxV+IzdxobHHsMrZLlkQEd2KaFP+CaR+EPtfoWK9xlAOrzrVNu4zNennnomTJwI17L20lkXYiZaZJTP5eKcjEYDwbmIJf4X931KQTtqckoomVTxvCycdJK+t/H3K/n9w9TKZeSWn94HPVwtY0mV+sQ1f/6+nEjjk8eNNz0AEpPKxkAQLsLKVb8PH8JnIR+8+KpwBnais846Psyene5fyH3WWa8Oa9euCx//5H+IHOVFEw2KUWp1nUpFHvFUMhv5v7/l/27QXDFeuKbIFUYDYox21Nivf72CvsV2xMtmQRJKQI/OZbo00O5k7nAZPvzw8uKfeurpaCMC+aJpjTYrOPffaYketRig9pu/pGN+cQ3ovCzk7ZUn4CY0s33GadzaU7v2e3e08CvRCY0bO8LixRnseOxyGLjv/Pvt4aST/y92iS/JCUlub+eff2Y45KCZkNDYUw9/RJ+NnOkcQ4PXtvatuTBEiSeWsplyc1iMG/6JJ54qaZ8zh9tockqdq1z7xKc2AaBe0OfMnlnS+1DlvQaJYqV07aavsEU/0Rlgcun112HSmmNCHNc1cyZe45SayrmtRT9+EJeTZyLH/vvvIf6qnQJfYUzvQXgZuQdfN3CajNGvqELX4X7Sd4Fh12FZh/pH3OcvXxT+5m8+3VQcp5z8crEVi4PyWZc4xHgl+62gloURHaOLolgT24wvwqpVq0t69967RxbEIGgCVIfMfcEZjUWgelmMunjO99orfSeCBh5/fE3Jjk60cMlfLgRPJvTFwFB/Ko5mZZqIHL969dOyBr1xVFtcx9Klj0Q2FtIB+7OY1IdDD8XHTNZu+elSwWtCSPe1OoePZpu++hlvsXCfSYkw+H54w314MrnBFch44EGwbWsUfuqinHfRrzYaQiuJlyYtCqNXlCdHTDkcFaNUbsZp8Oabby8pPPTQuWE33Ge4gz5Wi4SyjiNP1Al4+rRR+FbXnJLeb3+n/PJHiPQj84U+xwLJ8LQl9oyutkrqha58Cb/qN7x8ZYE1+PbbcT+QtQVH7St2Tztl/9Ij5hVXLIK4+kTfXNfKlZVddnYPPZMfXY8VkKxBTxbFqy7q4RqqHzbOnr1X0kG7+BGbljuZU6fpzZbQBFYK4w+iTKs2OacmaMScFIOAYfC6H9wRli9/rKT47W87GRxaSD7qYrTIYhHQWnTS4SK89dzjS/oWL74Pn9am70Q40f2SAsv1iJ+mzwvafJZACexadKQfC44q39eoz6qHdO9XXPmz0lcDDsLXE8l7WPYKfPHiZbhxXMsVCk2SYTqe+f26snHhsRNPJDx5lM7guEaN4513PlrRQ1Mm4/HH+hWT9Pu6cOPZLG+YSmFQLzW5Q6o0LsqdFBZbMBz4/n/dWDJw2mknhHkH98RF5Yvj5SI5pjoYcOLYD5w7PZx66oKSvmuu+YnRS2iwJznxmHPvDIx4oGvxpIp9kavoAu+4ccOrSNFBPeXeCLfeloI6Z84eMNsIBxyQCuvOu7ir0B9NCE8QiYP4VTWjfpunkFF7wu+wjdTp8Zo+vfzkxidEtamaBHbfRZ6p1R4ajE/7Vi2M5/C/CK/RxeQLoRIuUHHisCxanfzIR7+K5+zfRit8fL3kkgvAbw6anM/lDLcF+iIlccBd/OGzS4+//M4o78Zl54kWFBA/LPDiM3VaAkQvg2EB8SCpRy2C4noyG39Yu17lXY/wMLAFfp/jV5GTL5xee8pc+WzDkd/5zs+ET+1posUX8YfzcktrsRi7Ta5JZDQHChPXCK9/XfkEWrr0VxYn5kp5yC/FEPXQNmw0Gk8CaPmoSs+qhbEBX/1aJ8EVxzQIqhwG8KNFo6Mmi4aL8MlPfI76Yps9e+9w5ZcuEn6Rs4TRYSDFWSk24hlwjFd8/kI8o6eXQ1T2L5+5SmgqR0zWIEfdXgzCY36LDbMpwZSk0m/rmRqC6mMZuWLFk6abdtyW+n/Fl24pXU7OOmthFOYbS15GdH20Z4kyHb/7XflSMnXqBLmvUi+MX3hTbDwHwgN9u00fE04//YRok8Add+BmF+sTXsiTt+QDdTJmwtNovjZTibVqYeC/Du592hMlweKixIguTp3XIIlho3/tGzeG7373etcr48KFR4Trf/ApuazQYQZIddJhXQBHfpH4v669BB8UHVqSv+yz3wk/uuF+lcGxuVGndeHK/XK8Boh2y8mtaIMefiW/3DL9bicbb72VL6+0+df4OeNvh3kx0D//4Vo5v+HGX5iUDpMnjw9fvvKi8IXPnR8OwqWUfPyRtRGiTc4FbuB9xYzwta9ejBd+eEdljTv2Rz/2TXBYvmg3FQElZS65LOT/mG/xYsi1hVB584nXHkXvakkglNaomG8qMcrmIjDfIvI9IpOAEW84+QaUDp3/jk+GUSNHhoXHHhktcOe4+upLw2233YOKvi+sWMHvIlC+Ju8MDj54Nr63cEDkd+Cyy74dPvmpa/GmFLyMkROyUQImb2X1LazqhS/yCpQSxFNAYRUFrK9IdWpHDWgJBSn9qWJ9zgLgp5554/dVL5dfGXQs7EUfCMrEiXHs6ZkW2I85Zj5u5leFe+/9FR7RnwyPSrwoU4T95uyJx/iZLeP1vvd9WnhYTFpIzBnlmD+MkkPSmLfGhqIulxLQW7dqYeCepFiFX2XbBIXdDJb8HqhElwZYCJpUmpQCAU5/lRAGgXzjmz8UPv6x88Mb33haySIfY9n7aryBuvTSb+AlDp/RoVsMyQv4FqJcsKLpGpsMKoQZAhGLQBRldGFPB5ExZYbVLZ8BRiuTBHX5F38SLrroLIH9cOutS2nV+F1IMMrSwk71FbcXievsNDJe//zPV+KN7F2IFe3RX+ZCi0BOcs4FxxyS1ljX2NjLe4y2rXopAWOxEoLrWVlRqSijodQxAZ0LdmN0SnEXvfeycO657w33359u0Np6YAQu8D//88Zw/AnvDJ/7wg/FltgQ/Wq3qkN8pE3j0UXTJ/1Rf+if+qXrcVpZG7GjRpWfSm5cxEuCyrrO8tjAVxDT5YQaF9+OywRlmAj/yew7vmwdvxW76LYqqs/5jTf+NLzhrPeEyz7L30LDOmkTtqRAmD+zz3VrbOgT31M1nqkPdMcIYdMT+Lj+GVxSRjPwvJxI4OXDL90t5Eym2zhNiZGNhCPjAQR/4+y6H9yOKr4zzJ+3Fx4/j8UXV2aHSZMm4Lq4C5i0LV++Mjz88Irwy18tD9/85iL7rqjq5M4klyra0G3AxbLRgiBGfVdhIsUrlY+ypleczFQ4iHXyt/HzJgHOEdBYbfy1S38Zx09Av3DFj8FCH8iZ+Fkk0sR+IZcL7gze/vKtl8oN5Zl/cVTYdddJ4SUv2S3svvv00hMa47V69ZrwwAPLwzXXLAqL+e11KQTNkZ/MXnycS5eCSTzI7ZMbNjzf8R5DwubO2Tipq2vwf9brQw+r1YfifyvCf3iX/feY8vfD8SUc/llH+U14jigEhfkrh9iEkEmZC54mDCcJJA9x6OSzkfMcLs/pGahSIe4y5ZVLALIQIYNoUthxSogsSlR+kzL+voeUbvJ6wl0up1o5xGJ0GgvaZQl4gRuOyRa9oDXBSLDg8lF3Ct0xCMuuICPhotgkvdHAs0WDbySe+9Zzz61+M6y1fVxtuscAM3eLFY2i97AubDv8lh9+3xFoOCKJYeXRNw8q7zEEJTd6hMkv9yeAySdiGAsWFKtYMgo8+SiL9cuQwURIcESeBOpiEL1AGDTuKkKxolE6GA0POb37pBQ1yD+1pnLpqDY477up1TKfe0Ks2zFYGM0nWYPjgRMxHrTrGiuwrMd4JH6ABcfiYDxJY0HonLrknoI4w+vuIU8jwGx6CAJti4LetbjHCBsajV7cQamSqLhkwJwUB9RJddAd5chFYySPjZEHuoQuI3l0AaSXYIkaF0wbqsv1pQCaDOi6+MQnxSyy9EH9wFGDhaPQZXRYdZXx7WkafNNn+sVP2uTapJtd8cNxuiZdg/kr8pRDr8KCAx/XaDBtC5/Ps9hJvDn3zvgKzJ2k97neRnEvDHVsrXYMCtyHXWMd+sgaCwR/QFzvNXhWcSF2/RfIdgzuLHQbZ6g8vuKeJO4cqD9ZCC8tkOHy5Qs7tmPYSS27R4KFCzogAV16v2E43YKwWGpjpz4Z5KABFywI2b0HUZI0MkuIZSTa9SjMI221aznNYR9pIsFJj+KU5nSM8o9zAvQpwcTJXPQ57MWBuReDjDr3ouCY93ii4/6iKzz/AEqkY2tXGMuwAD6d7EPlNbukxHcZwDBhXAIDKmHWWEdY6MClkfcZdFYvBfJFdCkeKzJkVnVSSGFqZ6GxYvhDW0y0F4R4YBXhOAZTUeRXWYZUG3FsmFOV6FSM4Bzs5yh6XbXI5BODMST7xCm+VCB5QVBPPmeCKePFEYuAejT5OhqP8FOGJzDptvMTD7jR2/vQxo2DVtBMp9auMFAUvQ/gpgW/ctWFvHTBsV4EHKnws5TJo2YrEIFxoLuaS7ufkPsKLA1FIAmWb4+Dx+ZyPgMna5dkUSf5qRE2xJ6IkhDnUiD0AAbJKY2GMZMYqiec0ZgxkM6mcilhhhNafw6uJ+dNuLY7BljUpvMSQYzNPfmct4KbioJykBZeLQa9xOhlhCe17PBSLH5rsHFJCGvTN43yJWRwu8Lgp0c/Lxq9rylqcl1CbHE5gAHuHmxMqDQrEFkaDsQyl+Xi4JxI0wEZKTDMhZ8LoB4pMvIRpnYsGjAQKo9RdhBKgdeTLqyCowzxHHhkyMmrHESTTrzy+JxjzsN5Pxr0lqXymcGRx2kYBaRs4iFS5uJrO5hnPWVAl6T7SLx2uQ+RXYJzFgNG2fEJb1pfNDa2+GJL81rbFQY5b4XSNVCOPzxFpbxPZTjRJXFMJqaSTIJMGis1oiW5TKwWCZhJw5xFIY+z4jRh0pjmMqx2YAOUcoGIIqoTOUgJD/mFl3MJoPpFNqURECmxZQqIbNNMbxuqolVfZDG7bqXEA1rCA5IJcQR8zkQSVpwXAulxZxAaE08+jtnOIDEljie0jlIceFRFYTzS21vcFX3tAOAa0bZx1zgK1B4mUd8h8D6BwULnIKOmRWfEK13IwkEc/+loENmlCTtpaAoT4D8GxpqLOi7One68vo/ZXNQmGoPLJmiBOUdXhNDKB5ctY2XmiYsk06VEHDEXcU2720Z2TIJ4k4l8AKLeDDacJFruHVgkPAmpQYtCks97Cs6tUPQtJ07qBk/sDbi/eP66onj2a3CAQh1bpx2D79JvCaH3aN2SuGPwvoFR1K5p0KjyyPXJaAcmWuNABJud2yDopYW7By8n8BM43UkopLsHNea7CXmkYJwuasnvmkHVa5DYSnh6xgZe0H0mc6LVSUIDbEmTKtV5fhSFnlhMovUqzuZCbwULTpOuPCwCWJJdwQvCdwnuFHmX3QLvLXpvhgv4HKzv1mnHoDTX+GrEc7jsGhJYZkO7Q3KqY6K7ioWbVWHNd4s0UoXSMzZHiVSOF7PiSlQIlIZfXaQ+0nzHUJhHuY4JwANlqjyKiyzJ7YgSwM3FiSISOkFiR6Y8MH1OwxjxStGiNA45000mFg5oXiikW4FwZ4iXEoG9KLg75J1FsRH1s+EXvb3r+cs06RtVspbWh74Kg3evh0HzXum1NyPn0VNYZ3aUwc5scgqLJQOwkcUbgV2bT1xGOEzeYIYyFYwFW+Q82Y6zUbKQ03I6YeejAZ/3Z8z4swS6Dk2z6Ra685MD+Ewmzbm7pyIoweBXPu4MlOfou4eOceeQ4mHReHGgMBob8Sr8+W8B901bKB3q2PoqjOcgzY8cX4WOvyCNLKDLmU+1NhcwFgvRmmUbYjEIlioowJbDOlWdWLbzCh9pUcgCLrIGM1hsdhlp3k1Iz3mpvzxXuvP1Z6RBS1hVl6hOOiSZ5GlZEMqnu4Lq1MSbvBSF7hRaDNSWikLvNbw4uGtoQfjI3aLR2PB0o3fjR3Br8TAt9Kf1VRjUwV3jz2BxkhSFZEiLg6AmUIFYMBAQPEdlSHPghKoirsD0CLEFzCClpn+KweegiS7nyUax3aoIclnye3d8u9H5MEqSnc/xnHuxECSeTUcpkBIOGCGZPCbCQ36BkXBihIk43ymII80KhHgURCoG2y3kQzMURu/zN4aw8TMQeB69X63TzacrWA7gWvQ5cnfLG9A6X3Ej6rIoza34bskWNJMS6Vwun2iIIxOk+TpcEFpO8jgKGn+aYciRYkUptiiLOVXqzaryKCLhhSzI6AxQIkWSbzKGMx6htDsoT5kTs4iIABRomplkbRxznOJj4knzIpD7BuWnfHm38DkLwosiweXLyIYNmPOLs/wSar9bf3YMesdfAzsRixoTE6RbAdAMMpPGAQf5x4lOJWI6jemwqcoY1nEqT2FRIYcEaiCjaYRLG0pMmNLc8aIHgW3aZaKsqZA55fvqzs/ReR3XnHTlUd50ufCdgHiFNfnQJ0Xgeplsg1vsFqVdgy+x4osswHxv0cAjath4Wyg2fRSGyt9ApukOrT+FQXHeyfK3avAFR08CMiHJ8LTxLAXMdaAlbD53WS8aMgKnLCIU4UyHMhhfZFBDMrV7i2g8+mjOiFNVGHMRJp66dVQd7WFNvdE9aW1kNXHkteSTr5L40jzS7BJh/JTXAtFdgT6KbtktiLOikPcVvIzgexfSN+DbExv4ZVB+T3JArb+FwZWxOI5FH8t4xB0ipVUMJ7zFHcH35MkILh9FIDsonyIiTywcBtibwuVdgj45D8ccxlT05DjnaYfL6VWY4WBjmaSi8uSpbZOx4pFLgfiU8LHIvCCqvIJnkaiddI+hBeI7RtwpfMeQ3YKPqNgtQnEJHO34qwKylMqhv4VBsZXoU9CPTAFB+jQ7pMcWkxoxBnjihAEBdcZS0rLCoXrX4TKVOadytkdGBl6boEzOcZq0NFMoTzwwURfgqK7CEwk53pgxaNKp3XAcPdGC8zlHFhqSLTtLXgiUZRH4aHycy82mFwh3Cd0puFvojrHhOYwsih+jD7gNpDConL/afjT6xLjgFH2g2TyqOjrZZ2VqWYKiTq/CtJfT1BIDhuYFJxPjE5zRJREkcq5nuJzpVMggR96cX3ldpjqKvCS6FR8TCA5JKOk6Fx25jNGliFrBUjDU4/ow8vIhxUKYxcDi8KLAKE8iGzgugmHeW+CjjYG3gRYGX5PzSQaPr3zM4KKZzZgyzLW1QGlihRVyNjqfaqA+qtNRJ3IEu8v4nIyJT+8RcpzpEh+Nj/xMQHSXeO+qN80d7yPpDmej6NMioA+SZFEFnpY0w0denYtcqTiyYiAvi8OKgqPALAgpEhaGFkeD7y2Kjfiib/H3cONucWUzDgMtDJr4NfoB6C/hBA7oIMHmgXOMgta53JQKXXkFBIOPokAnWbLBi0RqwlWOfM7mdss6nM/tZPNYRMQlfEpmbst50qgJT7uN6tDkRdgSq5cFymZ0JhN2tQASXudqxy8Z5cuH6hGaFALmUgS+U2hBSGHgDSffcuLwJRj7LHq/PhcBX1PbnML4I7TwRpS/OMm3omh0Hi1lrXluLEooF4XuEI4z0VyXwQkFZZjoPNkuz4GXM5b6XLcmJhYbBWIyqdN0qQvZ0XTJOo0vS3ReXFIMojMrBMpldlJxkEfvE7SICNMHcJh+2RkyHhaA7hZ5YaA45LU3CqPoXQYFf4f+OPpmt80pDBpbjj4WHTei3rggNM2OgYYj2vAyyAE0H53NEmOsooOH8hxJLiHyuStKo7Jybjixkc092ZszxmSnHUCS6rqyAknJzgomyrMQ6BNoKAh/gqlePrRYuEPkRcH3FfjKHneLYhM/wng/+vXoW9Q2tzC4Ov5m7oHouycPLOAxc3kGCZOOUYKgUsKBg4wke1CF7Ge68pJJz3abYyjdj4gskS4nCoHAGHcD4rwDBBx3kIh3evMoZ3uVL0uw69ZdoSyfcC2KQwpC+fWyYQUC3VIoUgwsHBQGd5D8nQUfT7mT6H9p9SmMHX81gIx9tc0tDOr9A/oK9GPQ8UbUGxeXmiScU6BTUnMeh8ngCTUBDnaGp+QRyQbepmSDvYRTPmGnA5SRicLilOCNz2wJnsmuzoVXk+qyTBJ9i2d8iYeJtMRyN2BCYxGRZskXGuxZ8mMhEA+cX270izeU4a7BzhdZcvkAT3EHDn+L/hv0LW5bUhg0vhydni9A59OKNQ883HUUguywbigpSSlZZAYXeKUQJDGuwEen+ZwjcKLELSiOR79/IazeOI/aYeLUZk43nHjsMJPksI9cehmO9waebIypGMibEl2CpQCy3YF8UihaBPiSDfQYjJFvNuW1t+wUBZ8W34X+M/St0ra0MOgE/+bQBPR5nKRmhcBYNCXYi4KJowSYMGoxJA0Scxw8uXJmZmSVA502lFmozlfePYRJ+MQO+BVDXwj13VWC9sjLM9dl8gIBFgml7bxIZGeBnMj4SHmBtQhUZwZLYVA3i4tFgTG7hOjlo+B9xT+gfxmdDm2VtjUKg9czfCWd/+ui9MwxD5z6KzUgwUgrkBgDF5ML1pgoIAUuLZcMRJAmg80pZ4hIcAbVyaTEQqQf0p3H532NzUWgesp4vQTQoiaWBRAT77tBpDHxzseCS3PBS4GgMOKuEe8p6Py/oX8cvd8fqVOor7Y1CoM2+JHuUnR8yBbKvzIOhDc5W3xioyaToWXg2DwxOtOj45zHiwBUrahUFCLgfFo8UbcVVLPOxJ/s5zYJVxIvfgInCVdetZPxMaG+Hku8Fgr4hUZ55ffCSCNvJtPlwy8jvHyoL7KKq3F8L3rH31wXzgEetlZh0Cyvcw+gvxx9PHqlMXhoMZCEBSMH3SUIapAJxZ0DuBxOPK4gyaRC8XIwnhZF4TZj8qJt11ceyR8TG3m9OLwIvDByPGHitYs9LxQZ9TKhhUBe7g4+ApanDu4SLApbT6jdgslfoT+KvtXb1iwMOkcnH0Sfj57+EAYm2jzQnDnso+J0B/HFK83vMUQGCY5FYskuz113NrYsCqe7/bLN5B+TmfMwrfShUgh2qSCvFg8TSznKk5fzFrDj5CYSfDLqTqFvOBXWncR9lJtM/FnEDn+oE8QtaVu7MOjLQ+iPoPNmtEVxAIswNe8ccdFKJxv5Sj27hBjdz3qZGm9zcZGquhLNdSea83QemVyVLe0ekmDi8+RX50azYpCCiQUBmuwUfLPpxcCxdOmgs9wpWBT3cLKt2rYoDPrKXeMR9EPRW1xWgJXmyeHoTeGU8CpPmsedom3SwVvaVWgjyYvFuJvk+DZw3AGczkTrDiIFEemGzwpAi4B4dOC1qJh44rQQWhWG+JgOLIp3om/2h2NJVWdoWxUGrbI4OlxW3DENMsOruwjwEuDq6MngyOajwzndaTo2F1lVpjqv6sJcEpjjNfmSaBZHpCe830iWi4GFgUKIBWI7BIoj3ylUL/2KjUVxIfo2Lwpa3JaFQf28rNyFvi/6bugdmgZdCgRcPhLSZkmRomkBC5/hBdYEVXcV1ZfxxbM8w1V1xaQ7jyefc4XLhcHk5/cg3BHIy+S32C3wbsKLokVBcPl8+uCNJt8ZbZe2rQuDi3gM/Vb0qegskD6aB5tshNk46qNnghVXnucJ85tUx/no+k1nvJTk9Fy34tOOlsu7DEYkXi8PhosFQJoXA2HfLbIRuDYFwXdE/Picj6S8sd9ubXsUBhfD/4fhJ+jd6HPQB6P30Sw5cqaBVQLvOEytWAhp1+SkufM6vXmU3YT6xUYzXZJl9PRa2xIvdg0u7Q70Q/GxUGIxsEB014iPprLjtAwF/1LuP6Dz5dXTLTm2IXJ7FQaXsA79ZvTV6LPRx6H3szUnLV4iWiZVP9hqKhIroijrRVXaNZhU72Y32vDLA/Ga/Fg8mGshgCaFYXOHbVfQx1GXbbt8fiD2bvQvoW/xJ6VtrXQgbM/CoBt89roTfTH6NPQ90fUJEkDfzRKFFKRrOhOR8A7rjmIJsDPYk1misThsV2g7SgG1KArq9cR7oeRzgXl/wUsFfaQ/HRs/9/gK+t+ib7UPxDpabEMcQFLaaNh89CSInot+Hvr0zVdDSV2G/6aazPVDEVBIs2XKYLDL9NMw06rJtVEQjsUoxam0dNlROrH9aPzmFb9L8S309f3g36YsHqVtaqSD8jpoR6K/A/016EPRt0LzQtCyiIURC0TpafEJajbuySeFBeAcDnD3cth4nKV/I+8fWAyfQ1/SP5H/PVz8muA56Leh+77LaG+DzhuKvON/LQ/otUonLvacP96QbKlvz2J9/43OE6IfN+Pg+l/cZmDt70Hn1wa3NPA7qjwL/+foPBH4PZadbQARmAXeS9D5Uf423kG2WwHy+xI/Rf9rdJ4AO9sWRGAPyP4V+v+gc+vdUXeBTn79Dn5/H/1N6FPQXxCt013XjrQABvRl6K9EPwadBbMjNz6W8ynjBnTeR/Dx/Bn0F0x7oRSGB5Q3abzM8EnmKPS56NyWd4SbNz5iPoLOl1M3o/M9xAPoL8j2QiuMPMh8tOXOMR/9cHS+au9B5w3d9igUvox6Ev0hdD5m8v7hLvQV6NwxXtDthVwY1cCzIHrQ90HfD/0l6D3oxPNxeDg6P6sZaOMr6XXovBSsQeeuwGLgf+3AHWE5+lr0F1V7MRVGNTHcUcZbn4TR+2jAEw3fwNiqcSfgHxt5Gp2wd85ZICyWF3V7MRdGp8TVQey0e7zoE98pODtpOyOwMwI7I7AzAjsjsDMCOyOwrSLw/wHOLe5PvuqBVgAAAABJRU5ErkJggg==;" vertex="1" parent="SdDO5gw--GSXWpUlC6ao-16">
          <mxGeometry x="76.2399999999998" y="36.1445783132532" width="106.83826246403085" height="106.83826246403085" as="geometry" />
        </mxCell>
        <mxCell id="SdDO5gw--GSXWpUlC6ao-17" value="" style="group;fontSize=16;" vertex="1" connectable="0" parent="1">
          <mxGeometry x="1610" y="515" width="240" height="240" as="geometry" />
        </mxCell>
        <mxCell id="SdDO5gw--GSXWpUlC6ao-2" value="&lt;font style=&quot;font-size: 25px;&quot;&gt;Aviary platform for publishing A/V media&amp;nbsp;&lt;/font&gt;" style="shape=cube;whiteSpace=wrap;html=1;boundedLbl=1;backgroundOutline=1;darkOpacity=0.05;darkOpacity2=0.1;verticalAlign=bottom;fontSize=14;fillColor=#fff2cc;strokeColor=#d6b656;" vertex="1" parent="SdDO5gw--GSXWpUlC6ao-17">
          <mxGeometry width="239.99999999999997" height="239.99999999999997" as="geometry" />
        </mxCell>
        <mxCell id="SdDO5gw--GSXWpUlC6ao-5" value="" style="shape=image;verticalLabelPosition=bottom;labelBackgroundColor=default;verticalAlign=top;aspect=fixed;imageAspect=0;image=data:image/png,iVBORw0KGgoAAAANSUhEUgAAAL4AAABXCAMAAACN4Q/lAAABd1BMVEUAAADKycrKycr4mxzKycrKycr4mxztmUr4mxz4mxz4mxz0kyvyaCL4mxzKycryaCL4mxz4mxzKycr4mxz4mxzyaCL4mxz4mxzyaCLyaCL4mxzyaCLyaCL4mxz4mxz3kh3yaCLyaCL4mxz4mxz3jh34mxz4mxzyaCL4mxz4mxzyaCLyaCLyaCL4mxzyaCL4mxzyaCLKycr4mxz4mxz4mxzyaCL4mxzyaCL4mxz4mxzyaCLyaCLyaCLKycrKycr4mxzyaCL4mxzyaCLyaCLyaCLyaCLyaCLyaCLyaCL4mxz4mxzyaCL4mxz4mxzyaCLyaCLKycrKycr4mxzyaCLKycr4mxzyaCL4mxzyaCL4mxzKycryaCLyaCLKycrKycryaCLKycryaCLKycrKycr4mxzyaCLyaCL4mxzKycrKycrKycrKycr4mxzyaCL4mxzyaCLKycryaCLyaCLyaCLKycrKycrKycryaCLKycryaCLKycr4mxzyaCL6eYWUAAAAenRSTlMAYHBAsNAhAsAwsAeAD8Af9tSglxb88ODIsE4WwX1sBe7g0KML+8a4uIxzcG1WKSgP9OjbqZ2IhUUsGvrz4IF5aGRgQDcS5+TPzLSKdF5N1silnZaQg1lLRzno37J5blZTUEo3Ni4lHx4R3M6upqCQjH16cWQpmHhAPQMzRsQAAAXuSURBVHja7ZppV9NAFIZfBAkaq8W2ihRLhba0QEFWERAERBYB2RX3fd93bX+86dzATTIpJlEPnXP6fCKTcM4zkzczd5rg1z5cQgVwcj/Dqr6dqn5VXy39tUNu1KACeOSqtmbT/1ei2tRiNqHj/1PzP/S1NwWDbCsklNDPFwR5SCihHyH9CCSq+v9f/wbpj0BCCX1Eyg2+GvoYyeVcx14R/TJU9av6lYMn/fjK5a7v3dM3R7ksOCHQYYXazgOoF8CCdjGfWFpKLD9JwYYurozCINqcWJraKVUaz0VjCFaidKFv/VTn9eIuV99fMW1ui+NOWBila2YAFAR8qjdyqrBLZtLqUCvaGow/snT6VC6KRfHXOqw0irZhv/orV4s2Op6hxDFx0AQL3aJpTpP09Vy6YCU8rDv19Qif7h/JU0dawfTSuYs+9TuLTpLiBjyjgxNgWkTLBTj1Qw0FJw0pu37mqLV3R3S6VzfAnBUtjT6zf7koc3UWBk2UHik7PU59LVuQecf6Es27RVO7lJ1Jn/o9nHvmGnesyZmdeUijPxUuyBwpq38WwA6lR3dmp96nPlJvS3nZmF6Zmbl/wexLshTK2TFKjyM7XbI+jgwYB21b+ZHakal1sy8RSb9/cH3RODmowWCA7oMjO5kAE2f3WFMchHaB/EX679jTExeHsbiLPkJHC2c1ENEFcW7AoR+eai1dOJxJWXTbHdlJBNDHFdOeEz8Ng/ucHg5TB9z0oVmewno6qdv0w092rzQv4vRwdtJRf/oyNPyfYKAnKT227GxL+jKnKcas7/ZMNlB6bNnJ4m/1u4TkMZQYsqYnHisdjOse9NtoBrfpS+M6RemxZWf5n+r/pPRYszMEz/pHrPoDcBIKm+nh7IRT/06fC4cTluzMBNRvgES7mR7OziCC6Lc+3Gi5fs4kSfrWB6GTszOnldGPJgYzA6dN0p70R8z0cHaag+hP22seq/4zTs9lXs9k/VCEjBkP+lr/Xnp6uQTyqa9tkLCsz9NoqYzu4IJB0n9Og+dTH8M05HvZicC//sdiOX2uE7qB2RgXDE59va0QSP8ipWcvO7X+9XtiZfU58S3AtGj+7Kq/VQimjwVKj5md05o/fZ7aY0MPe+LnBZ9YnwuHUcpOLO6mbxa//Wdr60NEo0f9BKXHzM4wfOtr4rEdu+I6cXLh0E3Z6YBTn/0WQl4nTiaapvRwd33qj5prEfPRrq+Pi/RQdrZd9Zek4HodfRylzQtvVHzqPzUjzbwnfUe65kXBkHLVz0lFQb9X/Wa6cVQUBdDvEXIbYDoc+jPFPYYg6fP8t2PJhKdHlx8boj6A/qzwGu/hn0LGHPrauT39m+76CfLjjdOSZ33w/j2DAPqgqia53UquM/M8cVoraC4YZP2dAgmaFWYoEfau/2RPPxFAn+WSLWfO3Gka53mf88UbYHd9bcA0OL04eDTblvYw7zO7/5uOBtKfTZZdtnj/RTwto4+872WLmSwQWQTSx83Yn/S7qGke5fSxHlz/eYFYDqiPh5QYk7G3kn6cOthZXl97Z/Ne8Drv854xnAqqj6ctbJ9c6ZL0zYJh1F2fWO5n+0y0zYf+pLRR8f9Lw7WWubFibK6j+zxWzpTYtuWr1HLNsV4K+FjPtzcaXQg3tt/QkBMn6826UhxsoQxZqnsU/X0/lKaNiqL6y7RRUfXtyhuq9xTVD4Vpo6Ko/hZtVJR8NdfaGzEXOAX1a3mhUPHFKOs3K62/qORr6V39tpDC+uFcSs2PAoxaaDCXD1W/aahk7Pqv66wct7J6uMQaDop7dW68Zn0v3EUgDuYTbJkX8EhF6q/CKxWpfw9eqSz9WweQHT/6h1eN2aXO4KTB5ubmh4mJibvGB/JfampqHjx4VCeuOo6DY+LwPmB/XvYJ/S9QE1od+l5CTY4L/TqoyctfggdQk3uUHR1qsir016AmLyg7j6Amdyk7GtTksND/BjX5Stn5ATWZoKpH1ey8EvofoCaPKTuPoSabwv4V1ESjUn8CavK4r69ULX9FJfMbvu2O+ko1BIUAAAAASUVORK5CYII=;" vertex="1" parent="SdDO5gw--GSXWpUlC6ao-17">
          <mxGeometry x="48.00000000000001" y="49.854590776900885" width="155.22096921621392" height="71.0722830605346" as="geometry" />
        </mxCell>
        <mxCell id="SdDO5gw--GSXWpUlC6ao-18" value="" style="endArrow=classic;startArrow=classic;html=1;rounded=0;labelBackgroundColor=default;strokeColor=default;strokeWidth=3;align=center;verticalAlign=middle;fontFamily=Helvetica;fontSize=11;fontColor=default;shape=connector;entryX=0;entryY=0;entryDx=0;entryDy=75;entryPerimeter=0;exitX=1;exitY=0.75;exitDx=0;exitDy=0;" edge="1" parent="1" source="X-yyeUIc4-xWhgOIY7qR-8" target="SdDO5gw--GSXWpUlC6ao-14">
          <mxGeometry width="50" height="50" relative="1" as="geometry">
            <mxPoint x="1187.857142857143" y="864.2352941176471" as="sourcePoint" />
            <mxPoint x="1255.7142857142858" y="797.764705882353" as="targetPoint" />
            <Array as="points" />
          </mxGeometry>
        </mxCell>
        <mxCell id="SdDO5gw--GSXWpUlC6ao-19" value="&lt;font style=&quot;font-size: 24px;&quot;&gt;Save/download project file to share or edit later&lt;br style=&quot;font-size: 24px;&quot;&gt;&lt;/font&gt;" style="text;html=1;strokeColor=none;fillColor=none;align=center;verticalAlign=middle;whiteSpace=wrap;rounded=0;fontSize=24;fontStyle=1" vertex="1" parent="1">
          <mxGeometry x="1136.78" y="1115" width="370" height="70" as="geometry" />
        </mxCell>
        <mxCell id="SdDO5gw--GSXWpUlC6ao-21" value="&lt;font style=&quot;font-size: 28px;&quot;&gt;Publish&amp;nbsp;&lt;br style=&quot;font-size: 28px;&quot;&gt;&lt;/font&gt;" style="text;html=1;strokeColor=none;fillColor=none;align=center;verticalAlign=middle;whiteSpace=wrap;rounded=0;fontSize=28;fontStyle=1" vertex="1" parent="1">
          <mxGeometry x="1576.43" y="110" width="310" height="79.76" as="geometry" />
        </mxCell>
      </root>
    </mxGraphModel>
  </diagram>
</mxfile>
